<svg width="61" height="56" viewBox="0 0 61 56" fill="none" xmlns="http://www.w3.org/2000/svg">
<path id="Vector" d="M57.3784 55.6619C50.4526 55.6821 43.6059 54.3079 36.8382 51.5394C30.0705 48.7708 23.9089 44.8365 18.3533 39.7364C12.7977 34.6364 8.50102 28.9699 5.46315 22.7369C2.42528 16.504 0.897001 10.1898 0.878314 3.79457C0.875624 2.87365 1.20582 2.10524 1.8689 1.48936C2.53198 0.873467 3.36217 0.564065 4.35948 0.561151L17.8232 0.521812C18.5989 0.519545 19.2921 0.760542 19.903 1.2448C20.5139 1.72906 20.8757 2.30358 20.9885 2.96837L23.1807 13.7061C23.2939 14.5244 23.2682 15.2152 23.1037 15.7784C22.9391 16.3417 22.6358 16.8286 22.1937 17.2392L14.1541 24.7836C15.2678 26.6734 16.589 28.4986 18.1178 30.2592C19.6467 32.0199 21.3277 33.7161 23.1609 35.348C24.8831 36.929 26.6881 38.3946 28.5758 39.7449C30.4636 41.0952 32.4619 42.3301 34.5706 43.4495L42.3618 36.2128C42.8591 35.7509 43.5091 35.4036 44.3118 35.1711C45.1145 34.9385 45.9039 34.8722 46.6799 34.9723L58.1552 37.0876C58.9315 37.29 59.5697 37.659 60.07 38.1948C60.5702 38.7305 60.8213 39.3309 60.8232 39.9961L60.8595 52.4285C60.8622 53.3494 60.532 54.1178 59.869 54.7337C59.2059 55.3496 58.3757 55.659 57.3784 55.6619ZM10.9789 18.9604L16.4493 13.8793L15.0154 6.66953L7.61868 6.69115C7.90184 8.78799 8.29574 10.8589 8.80037 12.904C9.30501 14.949 10.0312 16.9678 10.9789 18.9604ZM40.8123 46.3475C42.9757 47.211 45.1801 47.8952 47.4255 48.4003C49.671 48.9054 51.9297 49.2313 54.2018 49.3782L54.1821 42.6248L46.3656 41.1895L40.8123 46.3475Z" fill="#6B6666"/>
</svg>
