<svg width="69" height="64" viewBox="0 0 69 64" fill="none" xmlns="http://www.w3.org/2000/svg">
<path id="Shopping cart" d="M20.7191 64C18.8199 64 17.194 63.3733 15.8415 62.12C14.489 60.8667 13.8128 59.36 13.8128 57.6C13.8128 55.84 14.489 54.3333 15.8415 53.08C17.194 51.8267 18.8199 51.2 20.7191 51.2C22.6184 51.2 24.2443 51.8267 25.5968 53.08C26.9493 54.3333 27.6255 55.84 27.6255 57.6C27.6255 59.36 26.9493 60.8667 25.5968 62.12C24.2443 63.3733 22.6184 64 20.7191 64ZM55.251 64C53.3518 64 51.7259 63.3733 50.3734 62.12C49.0209 60.8667 48.3447 59.36 48.3447 57.6C48.3447 55.84 49.0209 54.3333 50.3734 53.08C51.7259 51.8267 53.3518 51.2 55.251 51.2C57.1503 51.2 58.7762 51.8267 60.1287 53.08C61.4812 54.3333 62.1574 55.84 62.1574 57.6C62.1574 59.36 61.4812 60.8667 60.1287 62.12C58.7762 63.3733 57.1503 64 55.251 64ZM17.7839 12.8L26.0716 28.8H50.2439L59.7402 12.8H17.7839ZM14.5034 6.4H65.438C66.7617 6.4 67.7689 6.94667 68.4595 8.04C69.1501 9.13333 69.1789 10.24 68.5458 11.36L56.287 31.84C55.6539 32.9067 54.805 33.7333 53.7403 34.32C52.6755 34.9067 51.5101 35.2 50.2439 35.2H24.5177L20.7191 41.6H62.1574V48H20.7191C18.1292 48 16.1724 46.9467 14.8487 44.84C13.525 42.7333 13.4674 40.64 14.6761 38.56L19.3379 30.72L6.90638 6.4H0V0H11.2229L14.5034 6.4Z" fill="#6B6666"/>
</svg>
