<svg width="42" height="38" viewBox="0 0 42 38" fill="none" xmlns="http://www.w3.org/2000/svg">
<path id="search" d="M38.7333 38L24.0333 24.7C22.8667 25.5444 21.525 26.213 20.0083 26.7056C18.4917 27.1981 16.8778 27.4444 15.1667 27.4444C10.9278 27.4444 7.34028 26.1162 4.40417 23.4597C1.46806 20.8032 0 17.5574 0 13.7222C0 9.88704 1.46806 6.6412 4.40417 3.98472C7.34028 1.32824 10.9278 0 15.1667 0C19.4056 0 22.9931 1.32824 25.9292 3.98472C28.8653 6.6412 30.3333 9.88704 30.3333 13.7222C30.3333 15.2704 30.0611 16.7306 29.5167 18.1028C28.9722 19.475 28.2333 20.6889 27.3 21.7444L42 35.0444L38.7333 38ZM15.1667 23.2222C18.0833 23.2222 20.5625 22.2986 22.6042 20.4514C24.6458 18.6042 25.6667 16.3611 25.6667 13.7222C25.6667 11.0833 24.6458 8.84028 22.6042 6.99306C20.5625 5.14583 18.0833 4.22222 15.1667 4.22222C12.25 4.22222 9.77083 5.14583 7.72917 6.99306C5.6875 8.84028 4.66667 11.0833 4.66667 13.7222C4.66667 16.3611 5.6875 18.6042 7.72917 20.4514C9.77083 22.2986 12.25 23.2222 15.1667 23.2222Z" fill="#6B6666"/>
</svg>
