<svg aria-hidden="true" style="position: absolute; width: 0; height: 0; overflow: hidden;" version="1.1" xmlns="http://www.w3.org/2000/svg" xmlns:xlink="http://www.w3.org/1999/xlink">
<defs>
<symbol id="icon-logo" viewBox="0 0 30 32">
<path fill="none" stroke="#6b6666" style="stroke: var(--color1, #6b6666)" stroke-linejoin="miter" stroke-linecap="butt" stroke-miterlimit="4" stroke-width="2.1918" d="M1.315 1.315v29.37M1.315 1.315l27.616 29.37M1.315 1.315h27.616M1.315 30.685l27.616-29.37M1.315 30.685h27.616M28.931 1.315v29.37"></path>
</symbol>
<symbol id="icon-messengers" viewBox="0 0 32 32">
<path d="M7.111 24.889h7.111v-7.111h-7.111v7.111zM17.778 24.889h7.111v-7.111h-7.111v7.111zM7.111 14.222h7.111v-7.111h-7.111v7.111zM17.778 14.222h7.111v-7.111h-7.111v7.111zM3.556 32c-0.978 0-1.815-0.348-2.511-1.044s-1.044-1.533-1.044-2.511v-24.889c0-0.978 0.348-1.815 1.044-2.511s1.533-1.044 2.511-1.044h24.889c0.978 0 1.815 0.348 2.511 1.044s1.044 1.533 1.044 2.511v24.889c0 0.978-0.348 1.815-1.044 2.511s-1.533 1.044-2.511 1.044h-24.889zM3.556 28.444h24.889v-24.889h-24.889v24.889z"></path>
</symbol>
<symbol id="icon-phone" viewBox="0 0 35 32">
<path fill="#6b6666" style="fill: var(--color1, #6b6666)" d="M32.788 31.807c-3.958 0.012-7.87-0.774-11.737-2.356s-7.388-3.83-10.563-6.745c-3.175-2.914-5.63-6.152-7.366-9.714s-2.609-7.17-2.62-10.824c-0.002-0.526 0.187-0.965 0.566-1.317s0.853-0.529 1.423-0.53l7.694-0.022c0.443-0.001 0.839 0.136 1.188 0.413s0.556 0.605 0.62 0.985l1.253 6.136c0.065 0.468 0.050 0.862-0.044 1.184s-0.267 0.6-0.52 0.835l-4.594 4.311c0.636 1.080 1.391 2.123 2.265 3.129s1.834 1.975 2.882 2.908c0.984 0.903 2.016 1.741 3.094 2.512s2.221 1.477 3.426 2.117l4.452-4.135c0.284-0.264 0.656-0.462 1.114-0.595s0.91-0.171 1.353-0.114l6.557 1.209c0.444 0.116 0.808 0.326 1.094 0.633s0.429 0.649 0.43 1.029l0.021 7.104c0.002 0.526-0.187 0.965-0.566 1.317s-0.853 0.529-1.423 0.53zM6.274 10.835l3.126-2.904-0.819-4.12-4.227 0.012c0.162 1.198 0.387 2.382 0.675 3.55s0.703 2.322 1.245 3.461zM23.321 26.484c1.236 0.493 2.496 0.884 3.779 1.173s2.574 0.475 3.872 0.559l-0.011-3.859-4.467-0.82-3.173 2.947z"></path>
</symbol>
<symbol id="icon-shopping-cart" viewBox="0 0 35 32">
<path fill="#6b6666" style="fill: var(--color1, #6b6666)" d="M10.36 32c-0.95 0-1.763-0.313-2.439-0.94s-1.014-1.38-1.014-2.26c0-0.88 0.338-1.633 1.014-2.26s1.489-0.94 2.439-0.94c0.95 0 1.763 0.313 2.439 0.94s1.014 1.38 1.014 2.26c0 0.88-0.338 1.633-1.014 2.26s-1.489 0.94-2.439 0.94zM27.625 32c-0.95 0-1.763-0.313-2.439-0.94s-1.014-1.38-1.014-2.26c0-0.88 0.338-1.633 1.014-2.26s1.489-0.94 2.439-0.94c0.95 0 1.763 0.313 2.439 0.94s1.014 1.38 1.014 2.26c0 0.88-0.338 1.633-1.014 2.26s-1.489 0.94-2.439 0.94zM8.892 6.4l4.144 8h12.086l4.748-8h-20.978zM7.252 3.2h25.467c0.662 0 1.165 0.273 1.511 0.82s0.36 1.1 0.043 1.66l-6.129 10.24c-0.317 0.533-0.741 0.947-1.273 1.24s-1.115 0.44-1.748 0.44h-12.863l-1.899 3.2h20.719v3.2h-20.719c-1.295 0-2.273-0.527-2.935-1.58s-0.691-2.1-0.086-3.14l2.331-3.92-6.216-12.16h-3.453v-3.2h5.611l1.64 3.2z"></path>
</symbol>
<symbol id="icon-search" viewBox="0 0 35 32">
<path fill="#6b6666" style="fill: var(--color1, #6b6666)" d="M32.618 32l-12.379-11.2c-0.982 0.711-2.112 1.274-3.389 1.689s-2.636 0.622-4.077 0.622c-3.57 0-6.591-1.118-9.063-3.356s-3.709-4.97-3.709-8.2c0-3.23 1.236-5.963 3.709-8.2s5.494-3.356 9.063-3.356c3.57 0 6.591 1.119 9.063 3.356s3.709 4.97 3.709 8.2c0 1.304-0.229 2.533-0.688 3.689s-1.081 2.178-1.867 3.067l12.379 11.2-2.751 2.489zM12.772 19.556c2.456 0 4.544-0.778 6.263-2.333s2.579-3.444 2.579-5.667-0.86-4.111-2.579-5.667c-1.719-1.556-3.807-2.333-6.263-2.333s-4.544 0.778-6.263 2.333-2.579 3.444-2.579 5.667c0 2.222 0.86 4.111 2.579 5.667s3.807 2.333 6.263 2.333z"></path>
</symbol>
</defs>
</svg>
